<?xml version="1.0" encoding="UTF-8"?>
<svg width="52px" height="52px" viewBox="0 0 52 52" version="1.1" xmlns="http://www.w3.org/2000/svg" xmlns:xlink="http://www.w3.org/1999/xlink">
    <title>fengshan_switch@2x</title>
    <g id="风扇" stroke="none" stroke-width="1" fill="none" fill-rule="evenodd">
        <g id="风扇-风扇开" transform="translate(-162.000000, -206.000000)">
            <g id="编组-4" transform="translate(48.000000, 92.000000)">
                <g id="fengshan_switch" transform="translate(114.000000, 114.000000)">
                    <rect id="矩形" x="0" y="0" width="52" height="52"></rect>
                    <path d="M37.7525503,12.9923422 C38.1742999,12.9923422 38.573472,13.1589536 38.8749486,13.460217 C42.308623,16.8940771 44.2,21.4670954 44.2,26.335157 C44.2,31.2032186 42.308623,35.7762369 38.8749314,39.2101141 C35.5679002,42.5166088 31.2048724,44.3929395 26.5395992,44.5273913 L26,44.535157 L25.4604008,44.5273913 C20.7951276,44.3929394 16.4320992,42.5166082 13.1250514,39.2100969 C9.69142456,35.7762844 7.8,31.2031025 7.8,26.335157 C7.8,21.4672114 9.69142456,16.8940296 13.1251119,13.4601565 C13.426528,13.1589536 13.8257001,12.9923422 14.2474497,12.9923422 C14.6690795,12.9923422 15.0684172,13.1589993 15.3698437,13.4602127 C15.9977675,14.0881365 15.9977675,15.0768935 15.3698437,15.7048173 C12.5389198,18.5357412 10.9803457,22.3100608 10.9803457,26.335157 C10.9803457,30.3255228 12.5386236,34.099933 15.3691591,36.9646345 C18.1660101,39.7958137 21.9405473,41.3548113 26,41.3548113 C29.9902765,41.3548113 33.7645342,39.7965963 36.6296507,36.966008 C39.4606737,34.1689544 41.0196543,30.3945055 41.0196543,26.335157 C41.0196543,22.3448136 39.4613922,18.5703942 36.631807,15.7064681 C36.0025267,15.0771877 36.0019385,14.0884305 36.6302125,13.4601565 C36.9315828,13.1589993 37.3309205,12.9923422 37.7525503,12.9923422 Z M26,7.15 C26.8127185,7.15 27.4639404,7.74698354 27.5471579,8.53445366 L27.5561481,8.70596473 L27.5561481,25.6895132 C27.5561481,26.5024029 26.9591646,27.1536362 26.1715454,27.2368545 L26,27.2458448 L25.8284546,27.2368545 C25.1014215,27.1600376 24.5368235,26.5992316 24.4542642,25.8740486 L24.4438519,25.6895132 L24.4438519,8.70596473 C24.4438519,7.83531274 25.1292302,7.15 26,7.15 Z" id="Fill-1" stroke="#5086FE" stroke-width="0.513333333" fill="#5086FE"></path>
                </g>
            </g>
        </g>
    </g>
</svg>