<?xml version="1.0" encoding="UTF-8"?>
<svg width="260px" height="260px" viewBox="0 0 260 260" version="1.1" xmlns="http://www.w3.org/2000/svg" xmlns:xlink="http://www.w3.org/1999/xlink">
    <title>frame1_1_s</title>
    <defs>
        <linearGradient x1="50%" y1="0%" x2="50%" y2="100%" id="linearGradient-1">
            <stop stop-color="#C3B3B1" offset="0%"></stop>
            <stop stop-color="#E2DADA" offset="100%"></stop>
        </linearGradient>
        <linearGradient x1="50%" y1="0%" x2="50%" y2="100%" id="linearGradient-2">
            <stop stop-color="#615669" offset="0%"></stop>
            <stop stop-color="#9C98A5" offset="100%"></stop>
        </linearGradient>
        <linearGradient x1="50%" y1="0%" x2="50%" y2="100%" id="linearGradient-3">
            <stop stop-color="#958F9B" offset="0%"></stop>
            <stop stop-color="#B8B4BD" offset="100%"></stop>
        </linearGradient>
    </defs>
    <g id="茶吧机" stroke="none" stroke-width="1" fill="none" fill-rule="evenodd">
        <g id="风扇切图" transform="translate(-560.000000, -69.000000)">
            <g id="frame1_1_s" transform="translate(560.000000, 69.000000)">
                <rect id="矩形" x="0" y="0" width="260" height="260"></rect>
                <g id="编组-2" transform="translate(8.000000, 8.000000)">
                    <circle id="椭圆形" fill="#F0ECEB" cx="122" cy="122" r="122"></circle>
                    <circle id="椭圆形备份" fill="url(#linearGradient-1)" cx="122" cy="122" r="119.5"></circle>
                    <circle id="椭圆形备份-3" fill="url(#linearGradient-2)" cx="122" cy="122" r="117.5"></circle>
                    <path d="M122,27 C174.467051,27 217,69.5329488 217,122 C217,174.467051 174.467051,217 122,217 C69.5329488,217 27,174.467051 27,122 C27,69.5329488 69.5329488,27 122,27 Z M122,198 C94.7260279,198 70.8075934,183.633235 57.3996608,162.05467 L53.1177617,164.638501 C67.4017418,187.665261 92.9100608,203 122,203 C151.502943,203 177.321843,187.226741 191.483818,163.653106 L187.115374,161.213658 C173.810653,183.25914 149.626782,198 122,198 Z M122,179 C101.626401,179 83.7493488,168.311016 73.670882,152.235088 L68.5326451,155.336304 C79.6626366,173.149758 99.4474321,185 122,185 C144.74811,185 164.680243,172.943372 175.754907,154.871609 L170.510623,151.943628 C160.466202,168.181692 142.496477,179 122,179 Z M91.6563577,141.38002 L85.6605279,144.998182 C93.2848486,157.0202 106.710533,165 122,165 C137.242478,165 150.632613,157.069173 158.269013,145.108907 L152.143489,141.689261 C145.714837,151.511261 134.615181,158 122,158 C109.252891,158 98.0531724,151.374835 91.6563577,141.38002 Z M41,122 C41,136.215493 44.6619685,149.575687 51.0940282,161.188705 L55.3787674,158.602738 C49.400949,147.745546 46,135.26994 46,122 C46,80.6951882 78.9506122,47.0864042 119.999672,46.0258132 L119.999735,41.024215 C76.1888957,42.0860346 41,77.9336138 41,122 Z M124.001266,41.0242393 L124.001328,46.0258391 C165.049923,47.0869498 198,80.6955235 198,122 C198,134.918285 194.776914,147.083778 189.091027,157.736193 L193.458437,160.174197 C199.547303,148.800237 203,135.803329 203,122 C203,77.9339492 167.81164,42.0865802 124.001266,41.0242393 Z M59,122 C59,132.811352 61.7232985,142.986643 66.521338,151.877317 L71.665801,148.772281 C67.4112956,140.7901 65,131.676644 65,122 C65,91.1891029 89.4461018,66.0878989 120.000271,65.0344225 L120.000274,59.0311352 C86.1317255,60.0872009 59,87.8751234 59,122 Z M124.000724,59.0311663 L124.000731,65.034457 C154.554432,66.0884475 179,91.1894396 179,122 C179,131.554512 176.649188,140.559962 172.494409,148.469505 L177.735683,151.396076 C182.373838,142.620203 185,132.616788 185,122 C185,87.8754586 157.868808,60.0877468 124.000724,59.0311663 Z M124.000941,79.045731 L124.000863,86.054664 C142.952435,87.0928566 158,102.789155 158,122 C158,127.836918 156.610878,133.349389 154.145195,138.224852 L160.262195,141.641337 C163.290599,135.753742 165,129.076497 165,122 C165,98.9224331 146.820273,80.0909691 124.000941,79.045731 Z M79,122 C79,129.02932 80.6866851,135.664694 83.6774133,141.52348 L89.6900902,137.894956 C87.3273449,133.101285 86,127.705652 86,122 C86,102.788817 101.048094,87.092305 120.000136,86.0546093 L120.000058,79.0456853 C97.1802581,80.0904193 79,98.9220963 79,122 Z" id="形状结合" fill="url(#linearGradient-3)"></path>
                </g>
            </g>
        </g>
    </g>
</svg>