<?xml version="1.0" encoding="UTF-8"?>
<svg width="24px" height="24px" viewBox="0 0 24 24" version="1.1" xmlns="http://www.w3.org/2000/svg" xmlns:xlink="http://www.w3.org/1999/xlink">
    <title>icon_zcf_s</title>
    <g id="茶吧机" stroke="none" stroke-width="1" fill="none" fill-rule="evenodd">
        <g id="风扇切图" transform="translate(-49.000000, -510.000000)">
            <g id="icon_zcf_s" transform="translate(49.000000, 510.000000)">
                <rect id="矩形" x="0" y="0" width="24" height="24"></rect>
                <g id="编组" transform="translate(2.750000, 4.100000)" fill="#FFFFFF" fill-rule="nonzero">
                    <path d="M0.410206281,12.835214 C3.69345458,10.7614073 6.82935497,10.723564 9.61611163,12.7393029 L9.80546822,12.8796883 C12.0081294,14.5580005 14.3599276,14.5498937 17.0707125,12.8396976 C17.3405103,12.6585392 17.6909192,12.6318494 17.9868946,12.76965 C18.2850846,12.9084817 18.4818695,13.1928881 18.4988139,13.5126041 C18.5157761,13.8326538 18.349713,14.1352186 18.070855,14.30016 C14.7877683,16.3721434 11.6519713,16.4092407 8.86477198,14.39187 L8.67720003,14.2520729 C6.47358097,12.5743042 4.1225103,12.5834438 1.4083914,14.2979397 C0.991326568,14.561518 0.430489447,14.4525608 0.15296608,14.0521925 C-0.127467401,13.647626 -0.011088946,13.1014659 0.410206281,12.835214 Z M0.410206281,7.20857965 C3.69345458,5.13477292 6.82935497,5.09692967 9.61611163,7.11266851 L9.80546822,7.25305396 C12.0081294,8.93136615 14.3599276,8.92325928 17.0707125,7.21306324 C17.3405103,7.03190478 17.6909192,7.00521498 17.9868946,7.14301564 C18.2850846,7.28184733 18.4818695,7.56625372 18.4988139,7.88596974 C18.5157761,8.20601939 18.349713,8.50858422 18.070855,8.67352564 C14.7877683,10.745509 11.6519713,10.7826063 8.86477198,8.76523561 L8.67720003,8.62543848 C6.47358097,6.94766978 4.1225103,6.95680945 1.40839141,8.67130528 C1.13864345,8.84178172 0.795220955,8.86183445 0.506088835,8.72418416 C0.21478462,8.58549978 0.0219208988,8.30726547 0.00184495303,7.99379417 C-0.018256047,7.67993165 0.138062443,7.38057022 0.410206281,7.20857965 Z M0.410206281,1.58194527 C3.69345458,-0.491861458 6.82935497,-0.52970471 9.61611163,1.48603413 L9.80546822,1.62641958 C12.0081294,3.30473177 14.3599276,3.2966249 17.0707125,1.58642886 C17.3405103,1.4052704 17.6909192,1.3785806 17.9868946,1.51638126 C18.2850846,1.65521295 18.4818695,1.93961934 18.4988139,2.25933537 C18.5157761,2.57938502 18.349713,2.88194985 18.070855,3.04689126 C14.7877683,5.11887463 11.6519713,5.15597194 8.86477198,3.13860123 L8.67720003,2.9988041 C6.47358097,1.32103541 4.1225103,1.33017507 1.4083914,3.0446709 C0.991326568,3.30824925 0.430489447,3.19929208 0.15296608,2.79892378 C-0.127467401,2.3943572 -0.011088946,1.84819719 0.410206281,1.58194527 Z" id="形状"></path>
                </g>
            </g>
        </g>
    </g>
</svg>