<?xml version="1.0" encoding="UTF-8"?>
<svg width="24px" height="24px" viewBox="0 0 24 24" version="1.1" xmlns="http://www.w3.org/2000/svg" xmlns:xlink="http://www.w3.org/1999/xlink">
    <title>icon_dg</title>
    <defs>
        <linearGradient x1="50%" y1="0%" x2="50%" y2="100%" id="linearGradient-1">
            <stop stop-color="#6B7785" offset="0%"></stop>
            <stop stop-color="#959FAA" offset="100%"></stop>
        </linearGradient>
    </defs>
    <g id="茶吧机" stroke="none" stroke-width="1" fill="none" fill-rule="evenodd">
        <g id="风扇切图" transform="translate(-815.000000, -460.000000)">
            <g id="icon_dg" transform="translate(815.000000, 460.000000)">
                <rect id="矩形" x="0" y="0" width="24" height="24"></rect>
                <path d="M12.05,4.05555555 C12.2902299,4.05555555 12.4103448,3.93333333 12.5304598,3.8111111 C12.6505747,3.8111111 12.7706896,3.56666665 12.7706896,3.44444445 L12.7706896,1.73333333 C12.7706896,1.36666667 12.4103448,1 12.05,1 C11.6896552,1 11.3293104,1.36666667 11.3293104,1.73333333 L11.3293104,3.44444445 C11.3293104,3.6888889 11.4494253,3.81111112 11.5695402,3.93333333 C11.6896552,4.05555555 11.8097701,4.05555555 12.05,4.05555555 Z M6.40459769,6.5 C6.76494253,6.5 7.0051724,6.37777778 7.00517242,6.0111111 C7.12528736,5.76666665 7.00517242,5.4 6.88505747,5.27777778 L5.68390804,4.05555555 C5.5637931,3.93333333 5.44367815,3.8111111 5.20344826,3.8111111 C5.08333332,3.8111111 4.84310343,3.93333333 4.72298851,4.05555555 C4.60287356,4.17777778 4.48275862,4.42222222 4.48275862,4.54444445 C4.48275862,4.7888889 4.60287356,4.91111112 4.72298851,5.03333333 L5.92413793,6.25555555 C6.04425288,6.37777778 6.16436782,6.5 6.40459769,6.5 L6.40459769,6.5 Z M12.05,5.4 C8.92701149,5.4 6.1643678,7.6 5.44367815,10.6555556 C4.60287356,13.7111111 5.92413793,16.8888889 8.56666666,18.4777778 L8.56666666,19.5777778 C8.56666666,21.4111111 10.1281609,23 12.05,23 C13.9718391,23 15.5333333,21.4111111 15.5333333,19.4555556 L15.5333333,18.4777778 C18.1758621,16.8888889 19.4971264,13.7111111 18.7764368,10.6555556 C17.9356322,7.47777778 15.1729885,5.4 12.05,5.4 Z M12.05,21.6555556 C11.0890805,21.6555556 10.3683908,21.0444444 10.008046,20.1888889 L13.9718391,20.0666667 C13.7316092,21.0444444 13.0109195,21.6555556 12.05,21.6555556 L12.05,21.6555556 Z M14.5724138,17.3777778 L14.212069,17.6222222 L14.212069,18.7222222 L9.88793103,18.7222222 L9.88793103,17.5 L9.5275862,17.3777778 C7.24540229,16.1555556 6.04425288,13.5888889 6.64482758,11.1444444 C7.24540229,8.57777778 9.5275862,6.86666667 12.05,6.86666667 C14.5724138,6.86666667 16.8545977,8.7 17.4551724,11.1444444 C17.9356322,13.5888889 16.8545977,16.2777778 14.5724138,17.3777778 Z M17.6954023,6.5 C17.9356322,6.5 18.0557471,6.37777778 18.1758621,6.25555555 L19.3770115,5.03333333 C19.6172414,4.9111111 19.6172414,4.54444443 19.6172414,4.3 C19.4971264,4.05555555 19.3770115,3.8111111 19.1367816,3.8111111 L19.0166667,3.8111111 C18.7764368,3.8111111 18.6563218,3.93333333 18.5362069,4.05555555 L17.3350575,5.27777778 C17.0948276,5.52222222 17.0948276,5.76666667 17.2149425,6.0111111 C17.2149425,6.25555555 17.4551724,6.5 17.6954023,6.5 Z M4.00229884,10.9 L2.32068965,10.9 C1.96034481,10.9 1.6,11.2666667 1.6,11.6333333 C1.6,12 1.96034483,12.3666667 2.32068965,12.3666667 L4.00229884,12.3666667 C4.24252873,12.3666667 4.48275862,12.2444444 4.60287356,12 C4.72298851,11.7555556 4.72298851,11.5111111 4.60287356,11.2666667 C4.48275862,11.0222222 4.24252873,10.9 4.00229884,10.9 Z M21.7793104,10.9 L20.0977012,10.9 C19.7373563,10.9 19.3770115,11.2666667 19.3770115,11.6333333 C19.3770115,12 19.7373563,12.3666667 20.0977012,12.3666667 L21.7793104,12.3666667 C22.1396552,12.3666667 22.5,12 22.5,11.6333333 C22.3798851,11.1444444 22.1396552,10.9 21.7793104,10.9 L21.7793104,10.9 Z" id="形状" fill="url(#linearGradient-1)" fill-rule="nonzero"></path>
            </g>
        </g>
    </g>
</svg>