<?xml version="1.0" encoding="UTF-8"?>
<svg width="24px" height="24px" viewBox="0 0 24 24" version="1.1" xmlns="http://www.w3.org/2000/svg" xmlns:xlink="http://www.w3.org/1999/xlink">
    <title>icon_ml</title>
    <defs>
        <linearGradient x1="50%" y1="0%" x2="50%" y2="100%" id="linearGradient-1">
            <stop stop-color="#6B7785" offset="0%"></stop>
            <stop stop-color="#959FAA" offset="100%"></stop>
        </linearGradient>
    </defs>
    <g id="茶吧机" stroke="none" stroke-width="1" fill="none" fill-rule="evenodd">
        <g id="风扇切图" transform="translate(-136.000000, -810.000000)">
            <g id="icon_ml" transform="translate(136.000000, 810.000000)">
                <rect id="矩形" x="0" y="0" width="24" height="24"></rect>
                <path d="M12,4.84928229 C15.4228571,4.84928229 18.1904762,7.68086125 18.1904762,11.1650718 C18.1904762,12.9272727 17.4780952,14.576555 16.2452381,15.762201 C15.8071429,16.1832536 15.5714286,16.6334928 15.5714286,17.0435407 L15.5714286,17.6531101 C15.5714286,18.7698565 14.68,19.6818182 13.5714286,19.6818182 L10.4285714,19.6818182 C9.32,19.6818182 8.42857143,18.7698565 8.42857143,17.6531101 L8.42857143,17.0435407 C8.42857143,16.6334928 8.19285714,16.1832536 7.7547619,15.762201 C6.50811955,14.5614803 5.80517021,12.9002189 5.80950371,11.1650718 C5.80950371,7.68086125 8.57714286,4.84928229 12,4.84928229 Z M12,6.76315788 C9.63714286,6.76315788 7.71425615,8.73014352 7.71425615,11.1650718 C7.7098699,12.3779769 8.2003667,13.5397046 9.07142857,14.3794258 C9.85428571,15.1315789 10.3333333,16.04689 10.3333333,17.0435407 L10.3333333,17.6531101 C10.3333333,17.7200957 10.38,17.7679426 10.4285714,17.7679426 L13.5714286,17.7679426 C13.62,17.7679426 13.6666667,17.7200957 13.6666667,17.6531101 L13.6666667,17.0435407 C13.6666667,16.04689 14.1457143,15.1315789 14.9285714,14.3794258 C15.7996333,13.5397046 16.2901301,12.3779769 16.2857438,11.1650718 C16.2857438,8.73014355 14.3628571,6.76315788 12,6.76315788 L12,6.76315788 Z M18.7342857,4.10478468 L19.407619,4.78133972 C19.5935152,4.96818175 19.5935152,5.2710527 19.407619,5.45789473 L18.397619,6.47272727 C18.2116667,6.65951288 17.910238,6.65951288 17.7242857,6.47272727 L17.0509524,5.79617225 C16.8650562,5.60933022 16.8650562,5.30645925 17.0509524,5.11961721 L18.0604762,4.10478468 C18.1497944,4.0149392 18.2709956,3.96445613 18.3973809,3.96445613 C18.5237663,3.96445613 18.6449675,4.0149392 18.7342857,4.10478468 L18.7342857,4.10478468 Z M5.93904761,4.10478468 L6.94904761,5.11961721 C7.13494379,5.30645925 7.13494379,5.60933022 6.94904761,5.79617225 L6.27571429,6.47272727 C6.08976198,6.65951288 5.78833327,6.65951288 5.60238096,6.47272727 L4.59238096,5.45837319 C4.50296332,5.36862762 4.45272065,5.24684652 4.45272065,5.11985645 C4.45272065,4.99286639 4.50296332,4.87108529 4.59238096,4.78133972 L5.26571429,4.10478468 C5.45166659,3.91799906 5.7530953,3.91799906 5.93904761,4.10478468 Z M14.8571429,21.1172249 L14.8571429,22.0741627 C14.8571429,22.2010605 14.8069729,22.322761 14.7176699,22.4124913 C14.6283669,22.5022216 14.507246,22.5526316 14.3809524,22.5526316 L9.61904761,22.5526316 C9.49275405,22.5526316 9.37163314,22.5022216 9.2823301,22.4124913 C9.19302707,22.322761 9.14285714,22.2010605 9.14285714,22.0741627 L9.14285714,21.1172249 C9.14285714,20.8529738 9.35605488,20.638756 9.61904761,20.638756 L14.3809524,20.638756 C14.507246,20.638756 14.6283669,20.689166 14.7176699,20.7788963 C14.8069729,20.8686266 14.8571429,20.990327 14.8571429,21.1172249 L14.8571429,21.1172249 Z M12.952381,1.72846889 L12.952381,3.16387559 C12.952381,3.29077344 12.902211,3.41247387 12.812908,3.5022042 C12.723605,3.59193452 12.602484,3.64234448 12.4761905,3.64234448 L11.5238095,3.64234448 C11.397516,3.64234448 11.276395,3.59193452 11.187092,3.5022042 C11.097789,3.41247387 11.047619,3.29077344 11.047619,3.16387559 L11.047619,1.72846889 C11.047619,1.60157105 11.097789,1.47987061 11.187092,1.39014029 C11.276395,1.30040996 11.397516,1.25 11.5238095,1.25 L12.4761905,1.25 C12.602484,1.25 12.723605,1.30040996 12.812908,1.39014029 C12.902211,1.47987061 12.952381,1.60157105 12.952381,1.72846889 Z M21.5238095,12.5047847 L20.0952381,12.5047847 C19.9689445,12.5047847 19.8478236,12.4543747 19.7585206,12.3646444 C19.6692175,12.2749141 19.6190476,12.1532136 19.6190476,12.0263158 L19.6190476,11.069378 C19.6190476,10.9424801 19.6692175,10.8207797 19.7585206,10.7310494 C19.8478236,10.6413191 19.9689445,10.5909091 20.0952381,10.5909091 L21.5238095,10.5909091 C21.7868023,10.5909091 22,10.8051269 22,11.069378 L22,12.0263158 C22,12.2905669 21.7868023,12.5047847 21.5238095,12.5047847 Z M2.47619047,10.5909091 L3.9047619,10.5909091 C4.03105547,10.5909091 4.15217638,10.6413191 4.24147942,10.7310494 C4.33078246,10.8207797 4.38095239,10.9424801 4.38095239,11.069378 L4.38095239,12.0263158 C4.38095239,12.1532136 4.33078246,12.2749141 4.24147942,12.3646444 C4.15217638,12.4543747 4.03105547,12.5047847 3.9047619,12.5047847 L2.47619047,12.5047847 C2.21319773,12.5047847 2,12.2905669 2,12.0263158 L2,11.069378 C2,10.8051269 2.21319773,10.5909091 2.47619047,10.5909091 Z" id="形状" fill="#FFFFFF" fill-rule="nonzero"></path>
            </g>
        </g>
    </g>
</svg>